HIERARCHY
ROOT root
{
	OFFSET 0.000000 0.000000 0.000000
	CHANNELS 6 Xposition Yposition Zposition Zrotation Yrotation Xrotation
	JOINT lhip
	{
		OFFSET 0.058581 -0.082280 -0.017664
		CHANNELS 3 Zrotation Yrotation Xrotation
		JOINT lknee
		{
			OFFSET 0.043451 -0.386469 0.008037
			CHANNELS 3 Zrotation Yrotation Xrotation
			JOINT lankle
			{
				OFFSET -0.014790 -0.426874 -0.037428
				CHANNELS 3 Zrotation Yrotation Xrotation
				JOINT ltoe
				{
					OFFSET 0.041054 -0.060286 0.122042
					CHANNELS 3 Zrotation Yrotation Xrotation
					End Site
					{
						OFFSET 0.000000 0.000000 0.000000
					}
				}
			}
		}
	}
	JOINT rhip
	{
		OFFSET -0.060310 -0.090513 -0.013543
		CHANNELS 3 Zrotation Yrotation Xrotation
		JOINT rknee
		{
			OFFSET -0.043257 -0.383688 -0.004843
			CHANNELS 3 Zrotation Yrotation Xrotation
			JOINT rankle
			{
				OFFSET 0.019056 -0.420046 -0.034562
				CHANNELS 3 Zrotation Yrotation Xrotation
				JOINT rtoe
				{
					OFFSET -0.034840 -0.062106 0.130323
					CHANNELS 3 Zrotation Yrotation Xrotation
					End Site
					{
						OFFSET 0.000000 0.000000 0.000000
					}
				}
			}
		}
	}
	JOINT lowerback
	{
		OFFSET 0.004439 0.124404 -0.038385
		CHANNELS 3 Zrotation Yrotation Xrotation
		JOINT upperback
		{
			OFFSET 0.004488 0.137956 0.026820
			CHANNELS 3 Zrotation Yrotation Xrotation
			JOINT chest
			{
				OFFSET -0.002265 0.056032 0.002855
				CHANNELS 3 Zrotation Yrotation Xrotation
				JOINT lowerneck
				{
					OFFSET -0.013390 0.211636 -0.033468
					CHANNELS 3 Zrotation Yrotation Xrotation
					JOINT upperneck
					{
						OFFSET 0.010113 0.088937 0.050410
						CHANNELS 3 Zrotation Yrotation Xrotation
						End Site
						{
							OFFSET 0.000000 0.000000 0.000000
						}
					}
				}
				JOINT lclavicle
				{
					OFFSET 0.071702 0.114000 -0.018898
					CHANNELS 3 Zrotation Yrotation Xrotation
					JOINT lshoulder
					{
						OFFSET 0.122921 0.045205 -0.019046
						CHANNELS 3 Zrotation Yrotation Xrotation
						JOINT lelbow
						{
							OFFSET 0.255332 -0.015649 -0.022946
							CHANNELS 3 Zrotation Yrotation Xrotation
							JOINT lwrist
							{
								OFFSET 0.265709 0.012698 -0.007375
								CHANNELS 3 Zrotation Yrotation Xrotation
								End Site
								{
									OFFSET 0.000000 0.000000 0.000000
								}
							}
						}
					}
				}
				JOINT rclavicle
				{
					OFFSET -0.082954 0.112472 -0.023707
					CHANNELS 3 Zrotation Yrotation Xrotation
					JOINT rshoulder
					{
						OFFSET -0.113228 0.046853 -0.008472
						CHANNELS 3 Zrotation Yrotation Xrotation
						JOINT relbow
						{
							OFFSET -0.260127 -0.014369 -0.031269
							CHANNELS 3 Zrotation Yrotation Xrotation
							JOINT rwrist
							{
								OFFSET -0.269108 0.006794 -0.006027
								CHANNELS 3 Zrotation Yrotation Xrotation
								End Site
								{
									OFFSET 0.000000 0.000000 0.000000
								}
							}
						}
					}
				}
			}
		}
	}
}
MOTION
Frames: 13
Frame Time: 0.033333
0.123026 0.532350 0.973408 124.304262 18.160848 66.976210 17.634619 9.558831 2.505724 -4.838197 1.761492 40.388343 3.803931 20.488970 -41.398077 0.000000 -0.000000 0.000000 -17.477622 -14.407040 -45.195958 2.552915 -14.945400 35.347394 14.063761 -8.301542 5.947716 0.000000 -0.000000 0.000000 1.690745 -4.902665 27.001007 8.080642 2.125538 -3.659346 4.757616 -1.814405 5.760980 5.197554 -0.130759 -8.529589 -2.849316 -5.844763 11.989487 -20.316992 19.018764 1.517495 -50.982419 1.990792 -0.147255 0.514981 -54.113254 9.911218 3.458956 -7.035304 -30.321962 32.953237 -6.427584 -2.141063 41.650238 12.117448 16.128024 -32.968726 79.161885 -18.970241 -8.493531 11.679190 -6.930747 
0.148767 0.532449 0.971773 132.808507 19.406849 67.648173 18.640848 7.588262 1.620957 -7.117850 -1.952447 42.650129 4.613913 22.108131 -41.278540 0.000000 -0.000000 0.000000 -21.213779 -15.468442 -48.306860 3.459725 -14.257743 55.033037 13.331157 -9.095082 8.589799 0.000000 -0.000000 0.000000 0.873757 -4.870838 27.458825 8.939335 1.975205 -4.893770 4.399517 -1.527895 5.999815 5.294404 -1.802623 -8.408233 -2.141112 -9.643828 12.830055 -17.970276 16.063866 0.574808 -43.988763 -1.953585 -3.086402 9.402552 -53.290254 -1.789767 22.561748 -4.705306 -20.646985 33.103091 -6.221691 -2.574312 44.691595 7.953987 15.717775 -39.463410 75.420399 -23.876871 -18.895857 14.792067 1.018644 
0.176460 0.529994 0.967874 143.131793 20.536975 70.623664 20.966287 7.442254 -2.666866 -9.954584 -2.182203 45.807718 5.108347 22.087378 -41.518910 0.000000 -0.000000 0.000000 -25.697555 -15.440042 -49.117675 9.214495 -12.754770 71.328186 17.962340 -1.151451 15.782320 0.000000 -0.000000 0.000000 -0.434985 -3.677845 26.059152 10.456158 0.932287 -6.126934 3.692405 -1.178575 5.018756 6.138574 -1.863681 -7.101444 -1.230912 -16.418981 13.394139 -14.550816 10.719964 -0.546566 -32.544197 -5.322253 -6.433825 14.180515 -48.165369 -9.038987 38.499091 -13.733659 -12.062593 32.830298 -6.579432 -2.208467 48.313760 2.851861 13.820670 -45.896017 71.548215 -30.338686 -30.206571 17.003448 0.774636 
0.204711 0.529797 0.962104 154.003116 21.412880 73.845540 22.719607 9.109892 -6.989680 -11.306402 -2.606316 48.129363 6.531701 21.809098 -42.001464 0.000000 -0.000000 0.000000 -26.757633 -17.654708 -47.101016 11.845300 -12.211395 82.837818 20.134107 -0.087849 25.990580 0.000000 -0.000000 0.000000 -2.239347 -1.572955 25.098372 11.750691 -0.692597 -7.675758 4.041067 -1.422007 4.300093 5.982354 -3.853060 -5.658991 1.360301 -21.266971 12.451663 -9.792881 4.325018 -1.626537 -19.909490 -8.882144 -11.517652 13.830704 -41.524684 -15.197184 44.893270 -14.577985 -8.533063 31.072015 -6.208509 -2.088929 50.915560 -2.113189 12.311895 -50.477682 67.906733 -38.441801 -36.526607 14.505087 -3.563771 
0.231210 0.533873 0.957063 164.020286 22.511702 75.975794 24.356635 8.727823 -10.630279 -13.097335 -5.635629 51.575243 6.521606 19.860906 -42.476456 0.000000 -0.000000 0.000000 -26.510466 -18.611117 -40.701675 10.285895 -11.771129 87.858007 18.111460 -5.423606 30.477722 0.000000 -0.000000 0.000000 -3.606353 0.984261 25.783809 13.311311 -2.393434 -9.000248 4.915189 -1.753629 3.438136 5.422245 -5.746890 -4.557405 3.721091 -25.390814 11.340007 -4.495451 -2.292442 -2.306225 -8.671780 -11.388368 -16.493157 10.928659 -31.770654 -13.716760 47.531366 -18.642501 -3.757781 28.699790 -4.224572 -2.164533 50.620338 -6.895149 10.716917 -46.013335 63.427537 -35.388657 -39.030755 12.659760 -6.790925 
0.255290 0.537867 0.948983 172.129930 22.812481 79.359051 25.359383 7.480446 -15.558813 -15.242554 -7.596662 54.441031 6.364470 17.846209 -42.718175 0.000000 -0.000000 0.000000 -25.540547 -17.111570 -35.517378 11.288559 -9.309672 86.142885 16.922977 -6.815096 29.352402 0.000000 -0.000000 0.000000 -5.393642 3.584574 24.843960 14.974858 -3.901570 -9.874380 5.510210 -1.666733 2.258227 4.781248 -6.551412 -2.904434 6.343465 -29.876065 9.242817 1.080029 -7.045284 -2.829620 -0.205980 -13.117100 -19.332800 8.229551 -22.898994 -11.669587 47.388328 -22.087015 -0.336376 26.663031 -2.447752 -1.730929 49.563703 -9.861235 9.200149 -36.811508 56.869368 -27.199788 -37.631888 11.390445 -9.407115 
0.276290 0.542441 0.938130 179.521507 22.334819 83.405113 25.474657 6.696522 -20.466699 -16.970612 -9.954128 55.923118 6.693362 15.629076 -43.445186 0.000000 -0.000000 0.000000 -24.802047 -14.735241 -30.638326 13.314497 -4.476023 79.166655 16.370903 -6.967473 29.469453 0.000000 -0.000000 0.000000 -7.185602 5.355931 23.188297 16.080471 -5.115990 -11.423382 5.680799 -1.404388 1.863172 4.083803 -7.377599 -1.592804 8.620533 -33.671361 7.893279 5.581082 -9.719091 -3.937941 5.298514 -16.334495 -21.602100 6.123687 -15.448732 -9.326210 45.332836 -23.958200 4.852563 25.224441 -1.843338 -1.618310 49.261430 -11.225759 8.413962 -28.314641 48.286677 -19.605342 -36.070846 10.501896 -9.592548 
0.295587 0.547734 0.926755 -173.521171 21.144628 86.909023 25.069947 5.255728 -25.392041 -18.188787 -11.240158 57.737711 6.645392 13.084432 -43.436600 0.000000 -0.000000 0.000000 -24.776001 -11.986682 -24.492849 12.384752 1.526496 69.140267 15.259635 -8.340407 28.025209 0.000000 -0.000000 0.000000 -8.261362 6.512909 22.022035 15.852158 -5.904341 -13.724905 5.343414 -1.155701 2.393253 3.687781 -8.787908 -0.960784 10.244269 -36.612739 8.000567 8.467157 -10.268398 -5.117621 6.883610 -21.939550 -23.631032 5.889076 -12.035380 -7.760687 42.457711 -23.407388 8.011413 24.094912 -2.400167 -1.979793 51.080230 -11.740406 8.287613 -22.676342 38.679623 -15.093897 -35.095357 8.701958 -9.725491 
0.315390 0.552951 0.915120 -167.756476 19.356165 89.707779 24.592979 3.426905 -29.631415 -18.801722 -11.426989 59.023056 6.530425 10.791805 -43.328142 0.000000 -0.000000 0.000000 -24.990438 -8.971036 -17.892216 9.379622 7.939392 57.552350 14.003734 -9.132597 25.392194 0.000000 -0.000000 0.000000 -9.093100 7.460605 20.598450 14.648634 -6.300541 -15.332756 4.733188 -0.823274 2.961480 2.866975 -10.800407 -0.008003 11.565706 -38.181558 8.437596 9.311521 -9.468210 -5.588155 4.623997 -28.135218 -23.991096 7.150796 -14.261127 -8.191445 40.063636 -19.722768 5.432970 23.063980 -3.329269 -1.972085 54.388374 -11.814814 8.478395 -18.740851 30.261075 -12.529720 -31.778589 5.406989 -11.351799 
0.336776 0.557882 0.903684 -163.163838 17.404463 91.746962 24.448135 1.814595 -33.163906 -19.043351 -11.102914 60.008713 6.343485 8.415795 -43.423391 0.000000 -0.000000 0.000000 -25.332706 -6.401416 -11.619035 5.737285 13.527219 46.272750 13.421884 -8.342338 24.176787 0.000000 -0.000000 0.000000 -9.693574 8.398916 18.958940 13.018568 -6.392369 -16.077511 3.877290 -0.349730 3.334175 1.699448 -12.643311 1.232303 12.066955 -38.907262 9.752734 8.167660 -8.412739 -5.410708 -1.395891 -33.682960 -21.169666 9.728832 -18.749066 -6.124947 38.123135 -18.169762 0.780365 22.513614 -4.081239 -1.270267 57.879712 -11.454912 8.380269 -15.556864 23.489061 -9.544074 -26.515640 2.807821 -15.081355 
0.360335 0.561716 0.892472 -159.337250 15.621453 92.820008 24.632626 0.807937 -36.027592 -19.230276 -10.796255 60.993703 6.157092 5.870020 -43.458837 0.000000 -0.000000 0.000000 -26.420014 -5.776648 -6.282343 1.663516 14.536007 36.630831 13.151573 -7.671804 23.012698 0.000000 -0.000000 0.000000 -9.530985 9.193636 18.246639 10.752517 -6.111180 -16.493304 2.948493 0.079079 3.528887 0.628291 -14.600201 2.357765 12.051032 -38.560756 11.547637 4.741947 -7.507109 -4.925844 -9.528241 -37.815759 -16.317476 12.052553 -23.787953 -3.931809 37.223181 -16.992159 -0.569752 22.906280 -4.179513 -0.039378 59.849168 -10.504673 8.500941 -11.399242 18.012203 -7.183234 -25.028817 2.088458 -18.229692 
0.387600 0.564052 0.881871 -156.758222 14.281513 93.107676 25.554421 0.619321 -37.970959 -19.418930 -10.521833 61.461429 5.911579 3.380844 -43.366835 0.000000 -0.000000 0.000000 -27.747979 -7.087823 -2.738869 -1.077106 12.117083 29.640949 12.736220 -6.993191 21.192772 0.000000 -0.000000 0.000000 -9.145741 10.215250 18.558942 8.344451 -5.298409 -16.580834 2.178758 0.749280 3.306038 0.073543 -16.520040 2.906115 12.382454 -38.199884 13.203885 0.282645 -6.780653 -3.937348 -18.776359 -39.861236 -10.540775 14.119505 -29.078437 -3.204007 36.925399 -15.009800 -3.125498 23.977162 -3.607243 1.968146 61.391268 -9.377837 7.934581 -8.659161 14.927091 -5.558569 -23.697269 1.743682 -19.645048 
0.419494 0.564490 0.872067 -155.668996 13.456031 93.003849 27.318110 1.357784 -39.203364 -19.512911 -10.276739 61.347437 5.373760 1.008812 -43.001267 0.000000 -0.000000 0.000000 -28.259688 -8.757738 -1.746434 -2.069269 10.062552 26.153659 12.911859 -5.853559 21.394794 0.000000 -0.000000 0.000000 -8.900226 11.331927 19.512296 6.047416 -3.946534 -16.331339 1.532486 1.637848 2.780651 0.006993 -18.105767 2.757040 12.866556 -38.396706 14.654955 -3.769645 -5.920744 -2.467466 -27.731080 -38.915855 -4.882379 15.580131 -33.776523 -1.210656 37.102073 -14.502254 -5.202215 24.993149 -2.253708 4.349412 62.949236 -7.693908 7.197432 -6.894091 13.209457 -3.326331 -22.710298 2.283854 -20.189360 
